# xmcd
#
# Track frame offsets: 
#        150
#        21929
#        44345
#        65342
#        87248
#        109217
#        130907
#        151263
#        167181
#        187854
#
# Disc length: 2761 seconds
#
# Revision: 0
# Processed by: cddbd v1.5.2PL0 Copyright (c) Steve Scherf et al.
# Submitted via: ExactAudioCopy v0.95b3
#
DISCID=7d0ac70a
DTITLE=Pure Gold feat. Brenda Fassie - Hamba Sathane
DYEAR=1900
DGENRE=Gospel
TTITLE0=Hamba Sathane
TTITLE1=Izimvana (Dikonyana)
TTITLE2=Elakho Likhona (La Hao Le Teng)
TTITLE3=Somlandela
TTITLE4=Blessed
TTITLE5=Vukani Bandlanonke
TTITLE6=Hamba Nhliziyo Yami
TTITLE7=Tsholela
TTITLE8=O Lemenemene
TTITLE9=Rea O Boka
EXTD=
EXTT0=
EXTT1=
EXTT2=
EXTT3=
EXTT4=
EXTT5=
EXTT6=
EXTT7=
EXTT8=
EXTT9=
PLAYORDER=
